<?xml version="1.0" encoding="UTF-8"?>
<svg version="1.1" xmlns="http://www.w3.org/2000/svg" width="499" height="500">
<path d="M0 0 C164.67 0 329.34 0 499 0 C499 165 499 330 499 500 C334.33 500 169.66 500 0 500 C0 335 0 170 0 0 Z " fill="#FDFDFD" transform="translate(0,0)"/>
<path d="M0 0 C1.04181427 -0.00412399 2.08362854 -0.00824799 3.15701294 -0.01249695 C4.85525963 0.00368179 4.85525963 0.00368179 6.58781433 0.02018738 C7.78823364 0.0197493 8.98865295 0.01931122 10.22544861 0.01885986 C13.50825988 0.0205892 16.79068528 0.03561292 20.07341981 0.05658174 C23.50737464 0.07536214 26.94133743 0.07710004 30.37533569 0.08065796 C36.87407203 0.08997445 43.37265658 0.11458276 49.87132615 0.14470643 C57.27152169 0.17826286 64.67172455 0.19473955 72.07197726 0.20979273 C87.29112993 0.24113275 102.51013125 0.29388542 117.72917175 0.36076355 C119.82873242 6.65944555 118.76652144 12.24871449 116.72917175 18.36076355 C116.06917175 18.36076355 115.40917175 18.36076355 114.72917175 18.36076355 C114.79104675 19.96951355 114.79104675 19.96951355 114.85417175 21.61076355 C114.74058926 25.0182384 114.51643812 26.56815986 112.72917175 29.36076355 C112.06917175 29.36076355 111.40917175 29.36076355 110.72917175 29.36076355 C110.46749207 30.24634949 110.20581238 31.13193542 109.936203 32.0443573 C102.28562585 53.0648751 78.48998849 67.00203118 59.55436707 76.11418152 C48.78768249 80.86484618 36.80024814 84.25274395 25.02702332 84.73381042 C24.37441025 84.76161087 23.72179718 84.78941132 23.04940796 84.8180542 C21.64066356 84.87759436 20.2318431 84.93535615 18.8229599 84.99151611 C16.59578128 85.08047276 14.3688662 85.17447552 12.14195251 85.26982117 C6.61655032 85.50544211 1.09083252 85.7332384 -4.43495178 85.95970154 C-9.11497379 86.15162523 -13.79480934 86.3472434 -18.47444916 86.54827881 C-20.67301989 86.64118181 -22.87176933 86.72850257 -25.0705719 86.8157196 C-26.40914638 86.8727602 -27.74770911 86.93007722 -29.08625793 86.98771667 C-30.2592041 87.03577454 -31.43215027 87.0838324 -32.64064026 87.13334656 C-35.19452721 87.06994044 -35.19452721 87.06994044 -36.27082825 88.36076355 C-38.20642138 88.49580493 -40.14470025 88.59277484 -42.08332825 88.67326355 C-52.79531366 89.45763844 -61.05444474 92.74900217 -69.89582825 98.77482605 C-72.27082825 100.36076355 -72.27082825 100.36076355 -74.52082825 101.38420105 C-76.62544202 102.30072517 -76.62544202 102.30072517 -77.27082825 105.36076355 C-78.41918935 106.54289998 -79.5729698 107.72031483 -80.75520325 108.86857605 C-87.3101667 115.32217409 -91.83864273 122.32147716 -96.27082825 130.36076355 C-96.75938293 131.21670105 -97.24793762 132.07263855 -97.751297 132.95451355 C-99.46649035 135.97244906 -101.08093069 138.86926399 -102.33332825 142.11076355 C-103.52432574 144.96915753 -105.32459882 146.95659778 -107.27082825 149.36076355 C-109.24385615 152.46327845 -111.00261186 155.53695608 -112.14582825 159.04826355 C-113.77845227 162.40421293 -115.88039587 163.99707579 -119.27082825 165.36076355 C-123.61153201 165.9537918 -127.9217171 165.89669374 -132.29695129 165.86247253 C-133.6097406 165.86787552 -134.92252991 165.8732785 -136.27510071 165.87884521 C-139.86384463 165.89277082 -143.4521076 165.88165273 -147.04082465 165.865134 C-150.7990401 165.85125823 -154.55722836 165.85774612 -158.31546021 165.86126709 C-164.62268304 165.86396623 -170.92971523 165.85051585 -177.2368927 165.82731628 C-184.53065158 165.80067369 -191.82409248 165.79897144 -199.11788338 165.81070465 C-206.13704925 165.82147719 -213.15610001 165.81530176 -220.17525673 165.80114937 C-223.16205883 165.79538846 -226.14877672 165.79547295 -229.13558006 165.80021477 C-233.30152641 165.80586592 -237.46699611 165.7866831 -241.63288879 165.76481628 C-243.4960952 165.77156876 -243.4960952 165.77156876 -245.39694214 165.77845764 C-246.52830597 165.76855301 -247.6596698 165.75864838 -248.82531738 165.7484436 C-249.81029552 165.74601371 -250.79527365 165.74358381 -251.8100996 165.74108028 C-254.27082825 165.36076355 -254.27082825 165.36076355 -256.08773518 164.0123148 C-257.95659636 161.40345833 -257.63928647 159.49265844 -257.27082825 156.36076355 C-256.02082825 153.42326355 -256.02082825 153.42326355 -254.27082825 150.36076355 C-253.63145325 149.22638855 -252.99207825 148.09201355 -252.33332825 146.92326355 C-251.00918759 144.62608014 -249.67204458 142.33703663 -248.33332825 140.04826355 C-247.21677694 138.12199947 -246.2079186 136.2208525 -245.29426575 134.18888855 C-236.9748027 115.87409939 -219.5382438 97.09344403 -200.77082825 89.67326355 C-198.60834543 88.89076977 -196.44197119 88.11889732 -194.27082825 87.36076355 C-193.49867981 87.07330261 -192.72653137 86.78584167 -191.9309845 86.4896698 C-179.81165795 82.13393419 -168.09107625 80.92557236 -155.34171677 80.95007324 C-152.75787857 80.95463291 -150.17469644 80.94032827 -147.59092712 80.92167664 C-141.18189142 80.8791141 -134.77287591 80.86768631 -128.36372375 80.85545349 C-122.92193029 80.8438518 -117.48044213 80.82010025 -112.0387764 80.78076172 C-109.51523025 80.7673573 -106.99211833 80.77132966 -104.46855164 80.77616882 C-92.40787532 80.73497573 -81.8978269 78.98683289 -70.89582825 73.79826355 C-66.40510481 71.728664 -62.00500736 69.83378213 -57.27082825 68.36076355 C-57.27082825 67.70076355 -57.27082825 67.04076355 -57.27082825 66.36076355 C-55.6966095 65.0287323 -55.6966095 65.0287323 -53.58332825 63.54826355 C-47.59348828 59.17673122 -43.24000476 54.16870726 -38.8216095 48.25138855 C-37.27082825 46.36076355 -37.27082825 46.36076355 -35.27082825 45.36076355 C-33.50719017 42.75364639 -32.21210838 40.21535316 -31.032547 37.2943573 C-28.97823278 32.45426369 -26.24615955 28.03413606 -23.52082825 23.54826355 C-22.98514221 22.66404724 -22.44945618 21.77983093 -21.89753723 20.86882019 C-9.1560086 -0.02805723 -9.1560086 -0.02805723 0 0 Z " fill="#030303" transform="translate(317.2708282470703,174.6392364501953)"/>
<path d="M0 0 C1.42280158 -0.00107705 2.84560273 -0.00302196 4.2684021 -0.00575256 C8.07556503 -0.01053182 11.88260776 -0.00303688 15.68975616 0.00720048 C19.6952127 0.0160816 23.70066659 0.01422171 27.70613098 0.01383972 C34.41592384 0.01477092 41.12567096 0.0233869 47.83544922 0.03710938 C55.58485911 0.05289974 63.33421928 0.05810474 71.08364409 0.05737382 C79.36476219 0.05669838 87.64586124 0.06363084 95.92697358 0.07282043 C98.30444235 0.07494811 100.68190804 0.07566106 103.05937767 0.07605934 C106.79004989 0.07706449 110.52068049 0.08317511 114.25133896 0.09322548 C116.26960066 0.09753139 118.28787091 0.09697971 120.30613708 0.09628296 C122.11184174 0.10268044 122.11184174 0.10268044 123.95402527 0.10920715 C124.99791507 0.110883 126.04180487 0.11255884 127.11732769 0.11428547 C129.8326427 0.23748655 132.30830259 0.63120896 134.95239258 1.24291992 C134.95239258 1.90291992 134.95239258 2.56291992 134.95239258 3.24291992 C134.29239258 3.24291992 133.63239258 3.24291992 132.95239258 3.24291992 C132.29239258 5.22291992 131.63239258 7.20291992 130.95239258 9.24291992 C130.29239258 9.24291992 129.63239258 9.24291992 128.95239258 9.24291992 C128.70875977 9.92999023 128.46512695 10.61706055 128.21411133 11.32495117 C126.72763036 14.76272604 124.81326543 17.81074208 122.76489258 20.93041992 C122.36415527 21.54618896 121.96341797 22.16195801 121.55053711 22.79638672 C116.03913975 31.22358304 110.25677224 39.38804318 103.95239258 47.24291992 C103.44836914 47.88358398 102.9443457 48.52424805 102.42504883 49.18432617 C99.02211025 53.3635319 95.51194456 56.34935809 90.95239258 59.24291992 C90.29239258 59.24291992 89.63239258 59.24291992 88.95239258 59.24291992 C88.62239258 60.23291992 88.29239258 61.22291992 87.95239258 62.24291992 C79.22794968 64.56009667 70.56514171 64.52681181 61.6105957 64.50170898 C59.97691696 64.50442333 58.34323944 64.50798675 56.70956421 64.5123291 C52.30104089 64.52139681 47.89261183 64.51793372 43.48408699 64.51157093 C38.8645923 64.50648861 34.24510538 64.51120793 29.62561035 64.51434326 C21.8787288 64.51797349 14.1318855 64.51320554 6.38500977 64.50366211 C-2.57768153 64.49274861 -11.54028203 64.49632786 -20.50297117 64.50731492 C-28.20420978 64.51637808 -35.90542101 64.51767878 -43.60666323 64.51243758 C-48.20421623 64.50931647 -52.80172646 64.50891304 -57.39927673 64.51551056 C-61.71345679 64.52127033 -66.02751898 64.51731245 -70.34168625 64.50572205 C-71.92760904 64.50306941 -73.51354169 64.50385077 -75.0994606 64.50824738 C-77.25723862 64.51367988 -79.41463431 64.5068975 -81.5723877 64.49688721 C-82.78169701 64.49613316 -83.99100632 64.4953791 -85.23696136 64.4946022 C-88.04760742 64.24291992 -88.04760742 64.24291992 -90.04760742 62.24291992 C-90.77462671 56.21904583 -89.86298739 53.09761432 -86.33666992 48.19995117 C-84.94844354 46.24682195 -84.94844354 46.24682195 -84.12573242 43.81713867 C-82.87263116 40.8251324 -81.23874214 38.73787506 -79.17260742 36.24291992 C-78.49456055 35.41791992 -77.81651367 34.59291992 -77.11791992 33.74291992 C-76.4347168 32.91791992 -75.75151367 32.09291992 -75.04760742 31.24291992 C-74.37084961 30.38053711 -73.6940918 29.5181543 -72.99682617 28.62963867 C-64.53745002 18.27156487 -51.77713292 10.49027657 -39.61010742 5.24291992 C-38.99208252 4.96448242 -38.37405762 4.68604492 -37.73730469 4.39916992 C-26.12185159 -0.28861541 -12.31949766 -0.05364642 0 0 Z " fill="#030303" transform="translate(153.047607421875,174.757080078125)"/>
<path d="M0 0 C2.31 0 4.62 0 7 0 C7.50471197 1.76949612 8.00360685 3.54065223 8.5 5.3125 C8.7784375 6.29863281 9.056875 7.28476562 9.34375 8.30078125 C10 11 10 11 10 14 C12.22299152 13.17373604 12.22299152 13.17373604 12.81640625 10.78515625 C13.06261719 9.88667969 13.30882812 8.98820312 13.5625 8.0625 C14.92880259 3.14239482 14.92880259 3.14239482 16 1 C23.92 1 31.84 1 40 1 C40 2.65 40 4.3 40 6 C36.37 6 32.74 6 29 6 C29 6.99 29 7.98 29 9 C32.3 9 35.6 9 39 9 C39 10.65 39 12.3 39 14 C35.7 14 32.4 14 29 14 C29 14.99 29 15.98 29 17 C32.96 17 36.92 17 41 17 C41 11.72 41 6.44 41 1 C43.31 1 45.62 1 48 1 C48 6.28 48 11.56 48 17 C50.97 17 53.94 17 57 17 C57 19.31 57 21.62 57 24 C56.34 24 55.68 24 55 24 C55.495 24.8971875 55.495 24.8971875 56 25.8125 C57 28 57 28 57 31 C52.91281305 31.24042276 49.82320557 30.42258812 46 29 C46.495 30.485 46.495 30.485 47 32 C48.77532585 32.73077293 48.77532585 32.73077293 50.875 33.0625 C53.98533464 33.6650556 55.23878766 34.15919177 58 36 C58.5 39.4375 58.5 39.4375 58 43 C54.4655108 46.65230551 50.10455695 46.38667423 45.3046875 46.49609375 C43 46 43 46 41.1953125 44.16015625 C40 42 40 42 40 39 C41.98 39 43.96 39 46 39 C46 39.66 46 40.32 46 41 C47.98 41 49.96 41 52 41 C52 40.01 52 39.02 52 38 C51.28972656 37.86722656 50.57945312 37.73445313 49.84765625 37.59765625 C48.92855469 37.42105469 48.00945312 37.24445313 47.0625 37.0625 C46.14597656 36.88847656 45.22945313 36.71445312 44.28515625 36.53515625 C42 36 42 36 41 35 C40.63239269 32.67182036 40.29758419 30.3381615 40 28 C39.505 28.495 39.505 28.495 39 29 C37.14712498 29.07226502 35.29166122 29.0838122 33.4375 29.0625 C32.42558594 29.05347656 31.41367187 29.04445313 30.37109375 29.03515625 C29.58863281 29.02355469 28.80617188 29.01195312 28 29 C28 30.32 28 31.64 28 33 C31.3 33 34.6 33 38 33 C38 34.32 38 35.64 38 37 C34.7 37 31.4 37 28 37 C28 38.32 28 39.64 28 41 C31.63 41 35.26 41 39 41 C39 42.65 39 44.3 39 46 C33.39 46 27.78 46 22 46 C22 40.72 22 35.44 22 30 C18.7 30 15.4 30 12 30 C12 30.66 12 31.32 12 32 C14.97 32 17.94 32 21 32 C21 33.98 21 35.96 21 38 C18.03 38 15.06 38 12 38 C12 40.64 12 43.28 12 46 C9.36 46 6.72 46 4 46 C3.67 45.01 3.34 44.02 3 43 C2.34 43 1.68 43 1 43 C1 43.66 1 44.32 1 45 C-2.93021674 46.96510837 -7.71604362 46.47530928 -12 46 C-15.1875 44 -15.1875 44 -17 42 C-17.33 43.32 -17.66 44.64 -18 46 C-19.99954746 46.04254356 -22.00041636 46.04080783 -24 46 C-25 45 -25 45 -25.0625 41.4375 C-25.041875 40.303125 -25.02125 39.16875 -25 38 C-26.98 38 -28.96 38 -31 38 C-31 40.64 -31 43.28 -31 46 C-32.98 46 -34.96 46 -37 46 C-37.33 43.36 -37.66 40.72 -38 38 C-38.99 38.99 -39.98 39.98 -41 41 C-41 40.34 -41 39.68 -41 39 C-43.64 39 -46.28 39 -49 39 C-49 41.31 -49 43.62 -49 46 C-50.98 46 -52.96 46 -55 46 C-55 38.74 -55 31.48 -55 24 C-53.68 24 -52.36 24 -51 24 C-51 18.06 -51 12.12 -51 6 C-52.98 6 -54.96 6 -57 6 C-57 4.35 -57 2.7 -57 1 C-52.21287067 0.90113165 -47.42633525 0.82853377 -42.63842773 0.78027344 C-41.00974171 0.76015619 -39.38112792 0.73285863 -37.75268555 0.69824219 C-35.41176542 0.64972571 -33.07179982 0.62703368 -30.73046875 0.609375 C-29.63813179 0.57840729 -29.63813179 0.57840729 -28.52372742 0.54681396 C-23.4765986 0.5445731 -23.4765986 0.5445731 -21.02148438 2.890625 C-19.28818118 6.46991268 -20.29680548 9.16439351 -21 13 C-19.68 13.33 -18.36 13.66 -17 14 C-15.35 9.71 -13.7 5.42 -12 1 C-4.25 0.875 -4.25 0.875 -2 2 C-2 2.66 -2 3.32 -2 4 C-1.34 4 -0.68 4 0 4 C0 2.68 0 1.36 0 0 Z " fill="#D6D6D6" transform="translate(311,293)"/>
<path d="M0 0 C4.78712933 -0.09886835 9.57366475 -0.17146623 14.36157227 -0.21972656 C15.99025829 -0.23984381 17.61887208 -0.26714137 19.24731445 -0.30175781 C21.58823458 -0.35027429 23.92820018 -0.37296632 26.26953125 -0.390625 C27.36186821 -0.42159271 27.36186821 -0.42159271 28.47627258 -0.45318604 C33.5234014 -0.4554269 33.5234014 -0.4554269 35.97851562 1.890625 C37.71181882 5.46991268 36.70319452 8.16439351 36 12 C36.99 12 37.98 12 39 12 C40.10844919 15.32534757 39.84454356 17.62182575 39 21 C41.47266765 20.65555119 41.47266765 20.65555119 44 20 C44.33 19.34 44.66 18.68 45 18 C47.64 18 50.28 18 53 18 C53 19.32 53 20.64 53 22 C54.65 22 56.3 22 58 22 C57.67 22.66 57.34 23.32 57 24 C56.26394531 23.95359375 55.52789062 23.9071875 54.76953125 23.859375 C53.79371094 23.82328125 52.81789063 23.7871875 51.8125 23.75 C50.36810547 23.68039062 50.36810547 23.68039062 48.89453125 23.609375 C45.10363575 24.12096684 43.5497993 25.16276878 41 28 C40.47072591 31.13851102 40.47072591 31.13851102 40.8125 34.5 C41.23654797 41.47678929 41.23654797 41.47678929 39 45 C37.00045254 45.04254356 34.99958364 45.04080783 33 45 C32 44 32 44 31.9375 40.4375 C31.958125 39.303125 31.97875 38.16875 32 37 C30.02 37 28.04 37 26 37 C26 39.64 26 42.28 26 45 C24.02 45 22.04 45 20 45 C19.67 42.36 19.34 39.72 19 37 C18.01 37.99 17.02 38.98 16 40 C16 39.34 16 38.68 16 38 C13.36 38 10.72 38 8 38 C8 40.31 8 42.62 8 45 C6.02 45 4.04 45 2 45 C2 37.74 2 30.48 2 23 C3.32 23 4.64 23 6 23 C6 17.06 6 11.12 6 5 C4.02 5 2.04 5 0 5 C0 3.35 0 1.7 0 0 Z " fill="#E5E5E5" transform="translate(254,294)"/>
<path d="M0 0 C5.61 0 11.22 0 17 0 C17 1.65 17 3.3 17 5 C13.37 5 9.74 5 6 5 C6 5.99 6 6.98 6 8 C9.3 8 12.6 8 16 8 C16 9.65 16 11.3 16 13 C12.7 13 9.4 13 6 13 C6 13.99 6 14.98 6 16 C9.96 16 13.92 16 18 16 C18 10.72 18 5.44 18 0 C20.31 0 22.62 0 25 0 C25 5.28 25 10.56 25 16 C27.97 16 30.94 16 34 16 C34 18.31 34 20.62 34 23 C33.34 23 32.68 23 32 23 C32.495 23.8971875 32.495 23.8971875 33 24.8125 C34 27 34 27 34 30 C29.91281305 30.24042276 26.82320557 29.42258812 23 28 C23.33 28.99 23.66 29.98 24 31 C25.77532585 31.73077293 25.77532585 31.73077293 27.875 32.0625 C30.98533464 32.6650556 32.23878766 33.15919177 35 35 C35.5 38.4375 35.5 38.4375 35 42 C31.4655108 45.65230551 27.10455695 45.38667423 22.3046875 45.49609375 C20 45 20 45 18.1953125 43.16015625 C17 41 17 41 17 38 C18.98 38 20.96 38 23 38 C23 38.66 23 39.32 23 40 C24.98 40 26.96 40 29 40 C29 39.01 29 38.02 29 37 C28.28972656 36.86722656 27.57945312 36.73445313 26.84765625 36.59765625 C25.92855469 36.42105469 25.00945312 36.24445313 24.0625 36.0625 C23.14597656 35.88847656 22.22945313 35.71445312 21.28515625 35.53515625 C19 35 19 35 18 34 C17.63239269 31.67182036 17.29758419 29.3381615 17 27 C16.67 27.33 16.34 27.66 16 28 C14.14712498 28.07226502 12.29166122 28.0838122 10.4375 28.0625 C9.42558594 28.05347656 8.41367187 28.04445313 7.37109375 28.03515625 C6.19740234 28.01775391 6.19740234 28.01775391 5 28 C5 29.32 5 30.64 5 32 C8.3 32 11.6 32 15 32 C15 33.32 15 34.64 15 36 C11.7 36 8.4 36 5 36 C5 37.32 5 38.64 5 40 C8.63 40 12.26 40 16 40 C16 41.65 16 43.3 16 45 C10.72 45 5.44 45 0 45 C0 30 0 15 0 0 Z " fill="#B3B3B3" transform="translate(334,294)"/>
<path d="M0 0 C3.11141288 1.6437653 5.28893717 3.03036886 7.375 5.875 C8.69601084 10.36643685 8.48383625 13.10144696 6.25 17.25 C3.66374076 20.41098351 1.80821103 21.59890592 -2.1484375 22.4765625 C-5.70861433 22.71390762 -8.03890394 22.75556635 -10.91796875 20.4921875 C-13.64942708 17.18329499 -15.3745092 14.13671497 -15.6875 9.8125 C-14.8654546 5.25388458 -13.63291824 3.78805353 -10 1 C-6.38069302 -0.20643566 -3.80768995 -0.32268559 0 0 Z " fill="#1D1D1D" transform="translate(238,318)"/>
<path d="M0 0 C2.99872498 1.74925624 3.92216089 3.09773162 5.25 6.3125 C5.78854239 11.96719509 5.36807731 15.39553194 2.25 20.3125 C-1.74697311 22.31098655 -6.41359886 21.93734166 -10.75 21.3125 C-14.54761632 18.55736659 -15.40352899 17.16395447 -16.25 12.640625 C-16.49113957 8.92305659 -16.62233775 5.7438711 -14.640625 2.4921875 C-10.16599112 -1.7178175 -5.59631113 -1.39907778 0 0 Z " fill="#141414" transform="translate(309.75,317.6875)"/>
<path d="M0 0 C2.64517798 2.07013929 4.43059212 3.72978243 5.8125 6.8125 C6.10428901 10.21670513 6.05693812 13.58371288 6 17 C5.34 17 4.68 17 4 17 C3.67 17.99 3.34 18.98 3 20 C-0.45151575 22.52226151 -3.85626097 22.29598136 -8 22 C-10.86897932 21.12336743 -11.83591553 20.19924543 -13.75 17.875 C-15.3855662 14.11319774 -15.59730836 11.0420593 -15 7 C-13.67216089 3.78523162 -12.74872498 2.43675624 -9.75 0.6875 C-6.25314436 -0.18671391 -3.59341747 -0.44917718 0 0 Z " fill="#242424" transform="translate(404,317)"/>
<path d="M0 0 C1.42191614 -0.00135775 2.84383193 -0.00313977 4.26574707 -0.00531006 C8.09802191 -0.00983791 11.9302696 -0.00811465 15.76254487 -0.00493097 C19.78405466 -0.0023857 23.80556225 -0.0047507 27.82707214 -0.00631714 C34.57270726 -0.00813148 41.3183314 -0.00575076 48.06396484 -0.00097656 C55.85755375 0.00447569 63.65111654 0.00269347 71.44470483 -0.00280297 C78.14981459 -0.00734191 84.8549165 -0.00798114 91.5600273 -0.0053643 C95.55906871 -0.00380726 99.55809783 -0.00359231 103.55713844 -0.00690079 C107.31234842 -0.00979122 111.06752468 -0.00778223 114.82273102 -0.00200653 C116.19937522 -0.00068571 117.57602226 -0.00106155 118.95266533 -0.0032692 C120.8333768 -0.006007 122.71409448 -0.00196303 124.59480286 0.00241089 C125.64648557 0.00278791 126.69816828 0.00316494 127.78172016 0.00355339 C130.50457665 0.12370361 132.9826554 0.51485615 135.63354492 1.12939453 C135.30354492 1.78939453 134.97354492 2.44939453 134.63354492 3.12939453 C133.82717433 3.12847274 133.02080374 3.12755095 132.18999767 3.12660122 C112.58606995 3.10453476 92.98214469 3.08797748 73.37820721 3.07758236 C63.89796694 3.07242198 54.41773495 3.06538419 44.9375 3.05395508 C36.67632807 3.04400037 28.41516213 3.03753922 20.15398437 3.03530604 C15.77814702 3.03400027 11.40232684 3.03092285 7.02649498 3.02366447 C2.91028844 3.01689188 -1.20589383 3.01478012 -5.32210541 3.01628685 C-6.83503794 3.01601108 -8.34797125 3.01401329 -9.86089897 3.01018906 C-11.92241753 3.00523248 -13.98384379 3.00640354 -16.04536438 3.00914001 C-17.77787429 3.00775733 -17.77787429 3.00775733 -19.54538441 3.0063467 C-22.44652618 3.00353625 -22.44652618 3.00353625 -25.36645508 4.12939453 C-25.69645508 4.78939453 -26.02645508 5.44939453 -26.36645508 6.12939453 C-29.36645508 5.12939453 -29.36645508 5.12939453 -32.36645508 3.12939453 C-21.62371051 0.14529882 -11.10619926 -0.01713466 0 0 Z " fill="#545454" transform="translate(152.366455078125,174.87060546875)"/>
<path d="M0 0 C13.05699482 -0.3626943 13.05699482 -0.3626943 16.4375 0.9375 C19.02653144 4.35502151 18.41689063 8.03770029 18.25 12.1875 C18.23195313 13.03248047 18.21390625 13.87746094 18.1953125 14.74804688 C18.14820586 16.83251573 18.07646233 18.91640144 18 21 C16.02 21 14.04 21 12 21 C11.67 18.69 11.34 16.38 11 14 C9.35 13.67 7.7 13.34 6 13 C6 15.64 6 18.28 6 21 C4.02 21 2.04 21 0 21 C0 14.07 0 7.14 0 0 Z " fill="#2C2C2C" transform="translate(412,318)"/>
<path d="M0 0 C2.43375 -0.061875 4.8675 -0.12375 7.375 -0.1875 C8.52234619 -0.22846802 8.52234619 -0.22846802 9.69287109 -0.27026367 C11.46407019 -0.2922324 13.23492083 -0.14874263 15 0 C17.31332486 3.46998729 17.33957563 4.92509248 17 9 C16.01 10.485 16.01 10.485 15 12 C15.66 12 16.32 12 17 12 C17 14.97 17 17.94 17 21 C15.33388095 21.042721 13.66617115 21.04063832 12 21 C11 20 11 20 10.9375 16.4375 C10.958125 15.303125 10.97875 14.16875 11 13 C9.02 13 7.04 13 5 13 C5 15.64 5 18.28 5 21 C3.35 21 1.7 21 0 21 C0 14.07 0 7.14 0 0 Z " fill="#040404" transform="translate(275,318)"/>
<path d="M0 0 C13.35356544 -0.4900391 13.35356544 -0.4900391 15.9375 1.46875 C17.51732762 5.23245697 17.31796107 8.71574245 17.1875 12.75 C17.16719727 13.93916016 17.16719727 13.93916016 17.14648438 15.15234375 C17.11125223 17.10185564 17.05744821 19.05101626 17 21 C15.35 21 13.7 21 12 21 C11.34 18.69 10.68 16.38 10 14 C8.35 13.67 6.7 13.34 5 13 C5 15.64 5 18.28 5 21 C3.35 21 1.7 21 0 21 C0 14.07 0 7.14 0 0 Z " fill="#252525" transform="translate(274,294)"/>
<path d="M0 0 C5.61 0 11.22 0 17 0 C17 1.65 17 3.3 17 5 C13.37 5 9.74 5 6 5 C6 5.99 6 6.98 6 8 C9.3 8 12.6 8 16 8 C16 9.65 16 11.3 16 13 C12.7 13 9.4 13 6 13 C6 13.99 6 14.98 6 16 C9.63 16 13.26 16 17 16 C17 17.65 17 19.3 17 21 C11.39 21 5.78 21 0 21 C0 14.07 0 7.14 0 0 Z " fill="#343434" transform="translate(334,294)"/>
<path d="M0 0 C2.64 0 5.28 0 8 0 C15 15.4 15 15.4 15 21 C13.02 21 11.04 21 9 21 C9 20.01 9 19.02 9 18 C6.03 18 3.06 18 0 18 C-0.33 18.99 -0.66 19.98 -1 21 C-2.65 21 -4.3 21 -6 21 C-5.55355616 13.41045469 -2.88499438 6.98360263 0 0 Z " fill="#212121" transform="translate(299,294)"/>
<path d="M0 0 C2.875 2.375 2.875 2.375 5 5 C5 5.66 5 6.32 5 7 C0.91281305 7.24042276 -2.17679443 6.42258812 -6 5 C-5.67 5.99 -5.34 6.98 -5 8 C-2.95560898 8.695085 -2.95560898 8.695085 -0.5625 9 C1.87109375 9.375 1.87109375 9.375 4 10 C6.17975966 13.26963949 6.36904422 14.21729678 6 18 C5.36572923 19.34904515 4.70324904 20.68559405 4 22 C2.08458862 22.10841951 0.16740227 22.18578079 -1.75 22.25 C-3.35101563 22.31960938 -3.35101563 22.31960938 -4.984375 22.390625 C-8 22 -8 22 -10.390625 20.171875 C-12 18 -12 18 -12 15 C-10.02 15 -8.04 15 -6 15 C-6 15.66 -6 16.32 -6 17 C-4.02 17 -2.04 17 0 17 C-0.33 16.01 -0.66 15.02 -1 14 C-3.07385852 13.23078715 -3.07385852 13.23078715 -5.5 12.875 C-9.92277992 12.07722008 -9.92277992 12.07722008 -11 11 C-11.01953125 9.00390625 -11.01953125 9.00390625 -10.8125 6.5625 C-10.72935547 5.35787109 -10.72935547 5.35787109 -10.64453125 4.12890625 C-10 2 -10 2 -8.1328125 0.7421875 C-5.15934706 -0.2925349 -3.13115129 -0.44730733 0 0 Z " fill="#1E1E1E" transform="translate(382,317)"/>
<path d="M0 0 C0.86367188 -0.01675781 1.72734375 -0.03351563 2.6171875 -0.05078125 C5.61062909 0.38284814 6.9886427 1.19104752 9.125 3.3125 C9.125 4.3025 9.125 5.2925 9.125 6.3125 C5.03781305 6.55292276 1.94820557 5.73508812 -1.875 4.3125 C-1.545 5.3025 -1.215 6.2925 -0.875 7.3125 C0.90032585 8.04327293 0.90032585 8.04327293 3 8.375 C6.11033464 8.9775556 7.36378766 9.47169177 10.125 11.3125 C10.625 14.75 10.625 14.75 10.125 18.3125 C6.5905108 21.96480551 2.22955695 21.69917423 -2.5703125 21.80859375 C-4.875 21.3125 -4.875 21.3125 -6.6796875 19.47265625 C-7.875 17.3125 -7.875 17.3125 -7.875 14.3125 C-5.895 14.3125 -3.915 14.3125 -1.875 14.3125 C-1.875 14.9725 -1.875 15.6325 -1.875 16.3125 C0.105 16.3125 2.085 16.3125 4.125 16.3125 C4.125 15.3225 4.125 14.3325 4.125 13.3125 C3.41472656 13.17972656 2.70445312 13.04695313 1.97265625 12.91015625 C1.05355469 12.73355469 0.13445312 12.55695313 -0.8125 12.375 C-1.72902344 12.20097656 -2.64554687 12.02695312 -3.58984375 11.84765625 C-5.875 11.3125 -5.875 11.3125 -6.875 10.3125 C-7.14814815 4.57638889 -7.14814815 4.57638889 -6.875 2.3125 C-4.37490913 -0.18759087 -3.4537141 0.01537261 0 0 Z " fill="#232323" transform="translate(358.875,317.6875)"/>
<path d="M0 0 C13.44869269 -0.37014751 13.44869269 -0.37014751 15.92578125 1.29296875 C17.74109309 4.17766429 17.35319931 6.70347311 17 10 C15.76953125 11.70703125 15.76953125 11.70703125 14 13 C11.73828125 13.29296875 11.73828125 13.29296875 9.3125 13.1875 C8.10013672 13.14689453 8.10013672 13.14689453 6.86328125 13.10546875 C6.24839844 13.07066406 5.63351562 13.03585937 5 13 C5 15.64 5 18.28 5 21 C3.35 21 1.7 21 0 21 C0 14.07 0 7.14 0 0 Z " fill="#1D1D1D" transform="translate(256,318)"/>
<path d="M0 0 C5.28 0 10.56 0 16 0 C16 1.32 16 2.64 16 4 C12.37 4 8.74 4 5 4 C5 5.32 5 6.64 5 8 C8.3 8 11.6 8 15 8 C15 9.32 15 10.64 15 12 C11.7 12 8.4 12 5 12 C5 13.32 5 14.64 5 16 C8.63 16 12.26 16 16 16 C16 17.65 16 19.3 16 21 C10.72 21 5.44 21 0 21 C0 14.07 0 7.14 0 0 Z " fill="#1B1B1B" transform="translate(334,318)"/>
<path d="M0 0 C1.98 0 3.96 0 6 0 C6.50512244 1.60256108 7.00391627 3.20711792 7.5 4.8125 C7.7784375 5.70582031 8.056875 6.59914063 8.34375 7.51953125 C9 10 9 10 9 13 C11.22299152 12.17373604 11.22299152 12.17373604 11.81640625 9.78515625 C12.18572266 8.43744141 12.18572266 8.43744141 12.5625 7.0625 C13.92880259 2.14239482 13.92880259 2.14239482 15 0 C16.98 0 18.96 0 21 0 C19.03008535 7.12199913 16.860455 14.17891501 14 21 C11.36 21 8.72 21 6 21 C5.73445313 20.10796875 5.46890625 19.2159375 5.1953125 18.296875 C4.84210938 17.12640625 4.48890625 15.9559375 4.125 14.75 C3.77695312 13.58984375 3.42890625 12.4296875 3.0703125 11.234375 C2.1343285 8.1158571 2.1343285 8.1158571 0.8671875 5.828125 C0 4 0 4 0 0 Z " fill="#222222" transform="translate(312,294)"/>
<path d="M0 0 C5.94 0 11.88 0 18 0 C18 1.65 18 3.3 18 5 C16.02 5 14.04 5 12 5 C12 10.28 12 15.56 12 21 C10.02 21 8.04 21 6 21 C6 15.72 6 10.44 6 5 C4.02 5 2.04 5 0 5 C0 3.35 0 1.7 0 0 Z " fill="#232323" transform="translate(254,294)"/>
<path d="M0 0 C0.7734375 -0.00773437 1.546875 -0.01546875 2.34375 -0.0234375 C5.03181041 0.47326932 5.91247034 1.16843361 7.5 3.375 C7.8984375 5.3125 7.8984375 5.3125 7.875 7.375 C7.88273438 8.055625 7.89046875 8.73625 7.8984375 9.4375 C7.37448529 11.98534606 6.5950296 12.85261182 4.5 14.375 C1.44904237 14.98850778 -1.43410533 14.87741849 -4.5 14.375 C-6.5625 12.8125 -6.5625 12.8125 -7.5 10.375 C-8.14447018 4.25253329 -8.14447018 4.25253329 -6.2578125 1.68359375 C-4.03709737 0.03039471 -2.74681305 -0.02746813 0 0 Z " fill="#BDBDBD" transform="translate(234.5,321.625)"/>
<path d="M0 0 C5.28 0 10.56 0 16 0 C16 1.32 16 2.64 16 4 C12.37 4 8.74 4 5 4 C5 5.32 5 6.64 5 8 C8.3 8 11.6 8 15 8 C15 9.32 15 10.64 15 12 C11.7 12 8.4 12 5 12 C5 14.64 5 17.28 5 20 C3.35 20 1.7 20 0 20 C0 13.4 0 6.8 0 0 Z " fill="#121212" transform="translate(317,318)"/>
<path d="M0 0 C0.33 0 0.66 0 1 0 C1.33 6.93 1.66 13.86 2 21 C8.93 21.495 8.93 21.495 16 22 C16 22.33 16 22.66 16 23 C11.05 23 6.1 23 1 23 C1 30.26 1 37.52 1 45 C0.67 45 0.34 45 0 45 C0 39.72 0 34.44 0 29 C-3.3 29 -6.6 29 -10 29 C-10 29.66 -10 30.32 -10 31 C-7.03 31 -4.06 31 -1 31 C-1 31.33 -1 31.66 -1 32 C-4.3 32 -7.6 32 -11 32 C-11 30.68 -11 29.36 -11 28 C-7.37 28 -3.74 28 0 28 C0 26.35 0 24.7 0 23 C-4.95 23 -9.9 23 -15 23 C-15 22.67 -15 22.34 -15 22 C-12.03 22 -9.06 22 -6 22 C-5.9175 20.55625 -5.835 19.1125 -5.75 17.625 C-5.12912131 11.21534053 -2.85964817 5.71929634 0 0 Z " fill="#E0E0E0" transform="translate(333,294)"/>
<path d="M0 0 C1.50565735 3.01131471 0.62199955 5.64600316 0.15625 8.90625 C-0.18422754 11.05865882 -0.18422754 11.05865882 1 13 C45.22 13.33 89.44 13.66 135 14 C135 14.33 135 14.66 135 15 C117.4500193 15.07003341 99.9000821 15.1229603 82.34999371 15.15543652 C74.201462 15.17091555 66.05301705 15.19202478 57.90454102 15.22631836 C50.80359824 15.25618909 43.70271828 15.27556746 36.60171443 15.28226548 C32.84061046 15.28618172 29.07968621 15.29540669 25.31863976 15.31719017 C21.1233963 15.34129211 16.92846671 15.3419715 12.7331543 15.34057617 C11.48159042 15.351362 10.23002655 15.36214783 8.9405365 15.3732605 C7.23048431 15.36707451 7.23048431 15.36707451 5.48588562 15.36076355 C3.99672905 15.36491162 3.99672905 15.36491162 2.47748852 15.36914349 C0 15 0 15 -1.81943035 13.65323353 C-3.68387567 11.04232149 -3.36840864 9.13147341 -3 6 C-1.5 2.625 -1.5 2.625 0 0 Z " fill="#737373" transform="translate(63,325)"/>
<path d="M0 0 C2.29633824 3.44450737 2.54016485 5.93812283 3 10 C6.3 10.99 9.6 11.98 13 13 C13 13.99 13 14.98 13 16 C11.02 16 9.04 16 7 16 C7 15.34 7 14.68 7 14 C5.02 14 3.04 14 1 14 C1.20625 14.598125 1.4125 15.19625 1.625 15.8125 C2 18 2 18 0 21 C0 19.35 0 17.7 0 16 C-3.63 16 -7.26 16 -11 16 C-11 14.68 -11 13.36 -11 12 C-7.7 12 -4.4 12 -1 12 C-1 10.68 -1 9.36 -1 8 C-4.3 8 -7.6 8 -11 8 C-11 6.68 -11 5.36 -11 4 C-7.37 4 -3.74 4 0 4 C0 2.68 0 1.36 0 0 Z " fill="#BFBFBF" transform="translate(350,318)"/>
<path d="M0 0 C1.65 0 3.3 0 5 0 C5 5.28 5 10.56 5 16 C7.97 16 10.94 16 14 16 C14 17.32 14 18.64 14 20 C9.38 20 4.76 20 0 20 C0 13.4 0 6.8 0 0 Z " fill="#171717" transform="translate(353,295)"/>
<path d="M0 0 C0.33 0 0.66 0 1 0 C1.25 5.625 1.25 5.625 -1 9 C-0.34 9 0.32 9 1 9 C1 11.97 1 14.94 1 18 C-0.66611905 18.042721 -2.33382885 18.04063832 -4 18 C-5 17 -5 17 -5.0625 13.4375 C-5.041875 12.303125 -5.02125 11.16875 -5 10 C-6.65 10 -8.3 10 -10 10 C-9.01 9.67 -8.02 9.34 -7 9 C-7 8.34 -7 7.68 -7 7 C-8.32 6.67 -9.64 6.34 -11 6 C-11 4.35 -11 2.7 -11 1 C-5.58461538 0.63076923 -5.58461538 0.63076923 -2.625 2.5 C-2.08875 2.995 -1.5525 3.49 -1 4 C-0.67 2.68 -0.34 1.36 0 0 Z " fill="#292929" transform="translate(291,321)"/>
<path d="M0 0 C7.42184725 0.60834813 7.42184725 0.60834813 9.9375 2.3125 C12.62282465 6.57742738 12.08138848 11.116691 12 16 C11.34 16 10.68 16 10 16 C9.67 16.99 9.34 17.98 9 19 C6.69 19.33 4.38 19.66 2 20 C2 19.01 2 18.02 2 17 C2.99 16.67 3.98 16.34 5 16 C5.66 12.7 6.32 9.4 7 6 C4.36 5.34 1.72 4.68 -1 4 C-0.67 2.68 -0.34 1.36 0 0 Z " fill="#111111" transform="translate(398,318)"/>
<path d="M0 0 C1.65 0 3.3 0 5 0 C5 2.97 5 5.94 5 9 C8.465 8.505 8.465 8.505 12 8 C12.33 8.66 12.66 9.32 13 10 C12.34 10 11.68 10 11 10 C11 10.66 11 11.32 11 12 C9.02 12 7.04 12 5 12 C5 14.64 5 17.28 5 20 C3.35 20 1.7 20 0 20 C0 13.4 0 6.8 0 0 Z " fill="#0C0C0C" transform="translate(256,319)"/>
<path d="M0 0 C0.33 0.99 0.66 1.98 1 3 C3.31 3 5.62 3 8 3 C8 2.34 8 1.68 8 1 C8.66 1 9.32 1 10 1 C10 9.25 10 17.5 10 26 C11.65 26 13.3 26 15 26 C15 23.36 15 20.72 15 18 C18.3 18 21.6 18 25 18 C25 18.33 25 18.66 25 19 C22.03 19 19.06 19 16 19 C16 21.64 16 24.28 16 27 C13.36 27 10.72 27 8 27 C7.67 26.01 7.34 25.02 7 24 C6.34 23.67 5.68 23.34 5 23 C5.66 22.01 6.32 21.02 7 20 C7.30564826 15.26245197 7.53539014 11.18339373 5 7 C2.95894361 6.11306697 2.95894361 6.11306697 1 6 C1.99 5.67 2.98 5.34 4 5 C2.68 4.67 1.36 4.34 0 4 C0 2.68 0 1.36 0 0 Z " fill="#B8B8B8" transform="translate(307,312)"/>
<path d="M0 0 C1.65 0.33 3.3 0.66 5 1 C5.3125 4.3125 5.3125 4.3125 5 8 C1.4655108 11.65230551 -2.89544305 11.38667423 -7.6953125 11.49609375 C-10 11 -10 11 -11.8046875 9.16015625 C-13 7 -13 7 -13 4 C-11.02 4 -9.04 4 -7 4 C-7 4.66 -7 5.32 -7 6 C-5.02 6 -3.04 6 -1 6 C-1 5.01 -1 4.02 -1 3 C-0.34 2.67 0.32 2.34 1 2 C0.67 1.34 0.34 0.68 0 0 Z " fill="#2F2F2F" transform="translate(364,328)"/>
<path d="M0 0 C1.2065625 0.0309375 1.2065625 0.0309375 2.4375 0.0625 C2.7675 1.7125 3.0975 3.3625 3.4375 5.0625 C4.4275 4.7325 5.4175 4.4025 6.4375 4.0625 C8.68578052 8.55906104 8.60432272 12.14122966 8.4375 17.0625 C6.7875 17.0625 5.1375 17.0625 3.4375 17.0625 C2.7775 14.7525 2.1175 12.4425 1.4375 10.0625 C-0.2125 9.7325 -1.8625 9.4025 -3.5625 9.0625 C-3.5625 8.7325 -3.5625 8.4025 -3.5625 8.0625 C-1.9125 7.7325 -0.2625 7.4025 1.4375 7.0625 C-0.2125 6.7325 -1.8625 6.4025 -3.5625 6.0625 C-3.605221 4.39638095 -3.60313832 2.72867115 -3.5625 1.0625 C-2.5625 0.0625 -2.5625 0.0625 0 0 Z " fill="#282828" transform="translate(282.5625,297.9375)"/>
<path d="M0 0 C1.98 0 3.96 0 6 0 C2.11137026 14.05889213 2.11137026 14.05889213 -1 20 C-3.31 20 -5.62 20 -8 20 C-7.34 19.67 -6.68 19.34 -6 19 C-6 18.01 -6 17.02 -6 16 C-5.34 16 -4.68 16 -4 16 C-3.8453125 14.2675 -3.8453125 14.2675 -3.6875 12.5 C-3.13964887 7.98828481 -1.7225121 4.19394251 0 0 Z " fill="#1C1C1C" transform="translate(327,294)"/>
<path d="M0 0 C2.5625 0.25 2.5625 0.25 5.5625 2.25 C5.93581109 5.67201828 6.20013183 8.15185629 4.4375 11.1875 C1.777473 12.69484863 -0.43956205 12.44986253 -3.4375 12.25 C-4.55195498 10.02109005 -4.60230286 8.71944894 -4.625 6.25 C-4.63917969 5.54875 -4.65335937 4.8475 -4.66796875 4.125 C-4.28468008 1.00671928 -3.00021876 0.30771474 0 0 Z " fill="#EAEAEA" transform="translate(399.4375,321.75)"/>
<path d="M0 0 C3.96 0 7.92 0 12 0 C11.67 0.99 11.34 1.98 11 3 C8.69 3 6.38 3 4 3 C5.30155006 7.07964281 5.30155006 7.07964281 7 11 C6.01 11.495 6.01 11.495 5 12 C4.59270772 14.32156597 4.25561323 16.6568787 4 19 C2.68 19 1.36 19 0 19 C0 12.73 0 6.46 0 0 Z " fill="#050505" transform="translate(413,319)"/>
<path d="M0 0 C3.11141288 1.6437653 5.28893717 3.03036886 7.375 5.875 C8.18756857 8.63773314 8.13010404 11.13771112 8 14 C7.67 14 7.34 14 7 14 C7 12.35 7 10.7 7 9 C6.34 9 5.68 9 5 9 C5 10.98 5 12.96 5 15 C4.67 15 4.34 15 4 15 C3.8046875 12.98177083 3.609375 10.96354167 3.4140625 8.9453125 C3.13625251 6.77331755 3.13625251 6.77331755 1 5 C-1.0719137 4.68110168 -1.0719137 4.68110168 -3.375 4.75 C-4.14585937 4.74484375 -4.91671875 4.7396875 -5.7109375 4.734375 C-8.20801529 5.02413829 -9.80259604 5.82181745 -12 7 C-12.66 7 -13.32 7 -14 7 C-14 9.31 -14 11.62 -14 14 C-14.33 14 -14.66 14 -15 14 C-15.6120761 6.77750207 -15.6120761 6.77750207 -12.6875 3.0625 C-8.4885654 -0.15993818 -5.20289002 -0.44092288 0 0 Z " fill="#393939" transform="translate(238,318)"/>
<path d="M0 0 C0.1953125 6.0546875 0.1953125 6.0546875 0 8 C-2 10 -2 10 -5 10.1875 C-8 10 -8 10 -10 9 C-10 6.03 -10 3.06 -10 0 C-6.30581799 -1.231394 -3.7943739 -0.64432764 0 0 Z " fill="#E7E7E7" transform="translate(309,324)"/>
<path d="M0 0 C0.33 0 0.66 0 1 0 C1 5.28 1 10.56 1 16 C-2.96 16 -6.92 16 -11 16 C-11 15.01 -11 14.02 -11 13 C-7.7 13 -4.4 13 -1 13 C-1 11.35 -1 9.7 -1 8 C-4.3 8 -7.6 8 -11 8 C-11 7.01 -11 6.02 -11 5 C-7.37 5 -3.74 5 0 5 C0 3.35 0 1.7 0 0 Z " fill="#E9E9E9" transform="translate(351,294)"/>
<path d="M0 0 C1.32 0.66 2.64 1.32 4 2 C3.96519531 2.99580078 3.96519531 2.99580078 3.9296875 4.01171875 C3.70021822 10.75892553 3.70021822 10.75892553 6 17 C6.66 17.33 7.32 17.66 8 18 C7.01 18 6.02 18 5 18 C5 17.34 5 16.68 5 16 C3.35 16.33 1.7 16.66 0 17 C0.185625 15.88625 0.37125 14.7725 0.5625 13.625 C1.31680657 10.17431139 1.31680657 10.17431139 0 8 C-2.11846285 7.31270746 -2.11846285 7.31270746 -4.5625 6.875 C-5.38878906 6.70742188 -6.21507812 6.53984375 -7.06640625 6.3671875 C-7.70449219 6.24601562 -8.34257812 6.12484375 -9 6 C-9.33 4.68 -9.66 3.36 -10 2 C-5.91281305 1.75957724 -2.82320557 2.57741188 1 4 C0.67 2.68 0.34 1.36 0 0 Z " fill="#BFBFBF" transform="translate(386,320)"/>
<path d="M0 0 C1.670625 0.061875 1.670625 0.061875 3.375 0.125 C4.035 1.445 4.695 2.765 5.375 4.125 C3.065 3.795 0.755 3.465 -1.625 3.125 C-1.625 4.445 -1.625 5.765 -1.625 7.125 C1.84 6.63 1.84 6.63 5.375 6.125 C5.375 7.115 5.375 8.105 5.375 9.125 C2.36175805 10.63162097 -0.30786377 10.30270373 -3.625 10.125 C-5.625 8.125 -5.625 8.125 -5.875 5.125 C-5.4955869 0.57204274 -4.51633162 0.15573557 0 0 Z " fill="#323232" transform="translate(234.625,323.875)"/>
<path d="M0 0 C4.95 0 9.9 0 15 0 C16.35439668 2.70879335 16.06501451 5.00933268 16 8 C15.01 8 14.02 8 13 8 C12.34 7.01 11.68 6.02 11 5 C7.93443402 4.26656572 7.93443402 4.26656572 5 4 C5 5.65 5 7.3 5 9 C4.67 9 4.34 9 4 9 C4 7.02 4 5.04 4 3 C5.98 2.67 7.96 2.34 10 2 C7.03 1.67 4.06 1.34 1 1 C1 7.27 1 13.54 1 20 C2.32 20.33 3.64 20.66 5 21 C3.35 21 1.7 21 0 21 C0 14.07 0 7.14 0 0 Z " fill="#232323" transform="translate(275,318)"/>
<path d="M0 0 C0.33 2.97 0.66 5.94 1 9 C5.455 9.99 5.455 9.99 10 11 C10 11.99 10 12.98 10 14 C1.36497244 14.4390692 1.36497244 14.4390692 -3 11 C-4.52150158 7.95699684 -4.23899393 5.345915 -4 2 C-1 0 -1 0 0 0 Z " fill="#0F0F0F" transform="translate(298,324)"/>
<path d="M0 0 C0.33 0.99 0.66 1.98 1 3 C1.66 3 2.32 3 3 3 C3 3.66 3 4.32 3 5 C3.99 5 4.98 5 6 5 C8 8 8 8 8 12 C6.02 12 4.04 12 2 12 C1.67 11.34 1.34 10.68 1 10 C0.34 10 -0.32 10 -1 10 C-1.99 11.98 -2.98 13.96 -4 16 C-5 14 -5 14 -4.00390625 10.7421875 C-3.53110016 9.4502948 -3.05028031 8.16131362 -2.5625 6.875 C-2.31951172 6.21628906 -2.07652344 5.55757813 -1.82617188 4.87890625 C-1.22421679 3.25008662 -0.61297588 1.62470425 0 0 Z " fill="#3D3D3D" transform="translate(298,296)"/>
<path d="M0 0 C0.33 0.66 0.66 1.32 1 2 C-1.31 2 -3.62 2 -6 2 C-8.3992233 6.64849515 -8.19957409 10.91086074 -8 16 C-8.66 16 -9.32 16 -10 16 C-10 13.69 -10 11.38 -10 9 C-10.99 9.33 -11.98 9.66 -13 10 C-13.33 11.65 -13.66 13.3 -14 15 C-14.33 15 -14.66 15 -15 15 C-15.45504688 6.05074462 -15.45504688 6.05074462 -12 2 C-8.06493066 -0.29545711 -4.47994538 -0.17568413 0 0 Z " fill="#3D3D3D" transform="translate(404,317)"/>
<path d="M0 0 C0.33 0 0.66 0 1 0 C1 5.94 1 11.88 1 18 C-0.98 18 -2.96 18 -5 18 C-6.34956843 10.51602959 -6.34956843 10.51602959 -4.6875 8.0625 C-3 7 -3 7 -1 6 C-0.34227572 2.97065509 -0.34227572 2.97065509 0 0 Z " fill="#595959" transform="translate(429,321)"/>
<path d="M0 0 C1.32 0 2.64 0 4 0 C4 1.32 4 2.64 4 4 C5.98 4 7.96 4 10 4 C9.67 4.66 9.34 5.32 9 6 C7.35 6 5.7 6 4 6 C4 8.64 4 11.28 4 14 C2.68 14 1.36 14 0 14 C0 9.38 0 4.76 0 0 Z " fill="#040404" transform="translate(275,300)"/>
<path d="M0 0 C4.95 0 9.9 0 15 0 C15 0.99 15 1.98 15 3 C11.7 3 8.4 3 5 3 C5 4.32 5 5.64 5 7 C3.35 7 1.7 7 0 7 C0 4.69 0 2.38 0 0 Z " fill="#060606" transform="translate(335,295)"/>
<path d="M0 0 C1.98 0 3.96 0 6 0 C6 0.66 6 1.32 6 2 C7.98 2 9.96 2 12 2 C12.33 1.34 12.66 0.68 13 0 C13 0.99 13 1.98 13 3 C11.02 3.66 9.04 4.32 7 5 C9.97 5 12.94 5 16 5 C16 5.66 16 6.32 16 7 C14.08458862 7.10841951 12.16740227 7.18578079 10.25 7.25 C8.64898437 7.31960938 8.64898437 7.31960938 7.015625 7.390625 C4 7 4 7 1.609375 5.171875 C0 3 0 3 0 0 Z " fill="#3C3C3C" transform="translate(370,332)"/>
<path d="M0 0 C0.99 0.33 1.98 0.66 3 1 C3 1.66 3 2.32 3 3 C4.98 3 6.96 3 9 3 C5.375 6 5.375 6 2 6 C1.67 7.32 1.34 8.64 1 10 C-0.65 10 -2.3 10 -4 10 C-3.29445932 6.33118845 -1.72264494 3.29549466 0 0 Z " fill="#101010" transform="translate(297,305)"/>
<path d="M0 0 C1.35439668 2.70879335 1.06501451 5.00933268 1 8 C5.455 8.99 5.455 8.99 10 10 C10.33 11.32 10.66 12.64 11 14 C9.02 14 7.04 14 5 14 C5 13.34 5 12.68 5 12 C3.02 12 1.04 12 -1 12 C-0.67 13.32 -0.34 14.64 0 16 C-0.66 16 -1.32 16 -2 16 C-1.85975781 13.52039864 -1.7130815 11.04147598 -1.5625 8.5625 C-1.52318359 7.85544922 -1.48386719 7.14839844 -1.44335938 6.41992188 C-1.11328125 1.11328125 -1.11328125 1.11328125 0 0 Z " fill="#B3B3B3" transform="translate(371,320)"/>
<path d="M0 0 C0.33 0 0.66 0 1 0 C1 6.93 1 13.86 1 21 C0.67 19.68 0.34 18.36 0 17 C-0.66 17 -1.32 17 -2 17 C-1.67 18.32 -1.34 19.64 -1 21 C-1.99 21.33 -2.98 21.66 -4 22 C-4 21.34 -4 20.68 -4 20 C-4.66 19.67 -5.32 19.34 -6 19 C-4.625 17.5 -4.625 17.5 -3 16 C-2.34 16 -1.68 16 -1 16 C-1.28256092 14.06115111 -1.5763793 12.12394039 -1.875 10.1875 C-2.03742188 9.10855469 -2.19984375 8.02960938 -2.3671875 6.91796875 C-2.85132338 3.82678207 -2.85132338 3.82678207 -5 1 C-3.02 1.495 -3.02 1.495 -1 2 C-0.67 1.34 -0.34 0.68 0 0 Z " fill="#B6B6B6" transform="translate(411,318)"/>
<path d="M0 0 C0.33 0.66 0.66 1.32 1 2 C-3.455 2.495 -3.455 2.495 -8 3 C-8 3.99 -8 4.98 -8 6 C-7.34 5.67 -6.68 5.34 -6 5 C-3.6670134 4.95977609 -1.33293334 4.95679753 1 5 C0.67 5.66 0.34 6.32 0 7 C-2.64 7 -5.28 7 -8 7 C-8 9.31 -8 11.62 -8 14 C-8.33 14 -8.66 14 -9 14 C-9.33 12.35 -9.66 10.7 -10 9 C-10.99 9 -11.98 9 -13 9 C-12.71897086 5.62765029 -12.19628348 4.21360261 -9.875 1.6875 C-6.35183346 -0.38044558 -4.01922848 -0.31523361 0 0 Z " fill="#484848" transform="translate(307,317)"/>
<path d="M0 0 C0.33 0 0.66 0 1 0 C1 6.93 1 13.86 1 21 C0.67 21 0.34 21 0 21 C-0.33 18.36 -0.66 15.72 -1 13 C-1.99 13.99 -2.98 14.98 -4 16 C-4 15.34 -4 14.68 -4 14 C-6.64 14 -9.28 14 -12 14 C-12 16.31 -12 18.62 -12 21 C-12.33 21 -12.66 21 -13 21 C-13 18.36 -13 15.72 -13 13 C-12.37351562 12.95101563 -11.74703125 12.90203125 -11.1015625 12.8515625 C-10.28429687 12.77679688 -9.46703125 12.70203125 -8.625 12.625 C-7.81289063 12.55539062 -7.00078125 12.48578125 -6.1640625 12.4140625 C-3.79665809 12.17107412 -3.79665809 12.17107412 -2 10 C-1.32059533 7.57284794 -1.32059533 7.57284794 -0.875 4.875 C-0.70742188 3.96492188 -0.53984375 3.05484375 -0.3671875 2.1171875 C-0.24601562 1.41851562 -0.12484375 0.71984375 0 0 Z " fill="#A5A5A5" transform="translate(274,318)"/>
<path d="M0 0 C2.64 0 5.28 0 8 0 C8 1.32 8 2.64 8 4 C9.65 4 11.3 4 13 4 C12.67 4.66 12.34 5.32 12 6 C9.87527424 6.05386629 7.75016348 6.09273071 5.625 6.125 C3.84996094 6.15980469 3.84996094 6.15980469 2.0390625 6.1953125 C-1 6 -1 6 -3 4 C-2.01 4 -1.02 4 0 4 C0 2.68 0 1.36 0 0 Z " fill="#F0F0F0" transform="translate(299,312)"/>
<path d="M0 0 C0.66 0 1.32 0 2 0 C1.93967927 1.4386494 1.85079867 2.87611902 1.75 4.3125 C1.68039063 5.51326172 1.68039063 5.51326172 1.609375 6.73828125 C1 9 1 9 -0.71875 10.78125 C-3.45100457 12.24094765 -5.17329422 12.30894891 -8.25 12.1875 C-9.14203125 12.16042969 -10.0340625 12.13335937 -10.953125 12.10546875 C-11.62859375 12.07066406 -12.3040625 12.03585937 -13 12 C-13.33 11.34 -13.66 10.68 -14 10 C-13.32453125 9.87882812 -12.6490625 9.75765625 -11.953125 9.6328125 C-10.61507812 9.38144531 -10.61507812 9.38144531 -9.25 9.125 C-7.92742187 8.88136719 -7.92742187 8.88136719 -6.578125 8.6328125 C-4.13052256 8.03203736 -2.19400143 7.22002883 0 6 C0 4.02 0 2.04 0 0 Z " fill="#181818" transform="translate(243,327)"/>
<path d="M0 0 C0.99 0 1.98 0 3 0 C3.0809313 2.60478883 3.14045434 5.20706653 3.1875 7.8125 C3.21263672 8.55048828 3.23777344 9.28847656 3.26367188 10.04882812 C3.29296875 12.20703125 3.29296875 12.20703125 3 16 C2.01 16.99 1.02 17.98 0 19 C0 12.73 0 6.46 0 0 Z " fill="#020202" transform="translate(354,295)"/>
<path d="M0 0 C0.66 0 1.32 0 2 0 C2.36010591 7.32215357 2.36010591 7.32215357 0.9375 10 C-2.02087678 11.52690415 -4.73716599 11.18468872 -8 11 C-8 10.67 -8 10.34 -8 10 C-5.36 9.34 -2.72 8.68 0 8 C0 7.01 0 6.02 0 5 C-2.31 5.33 -4.62 5.66 -7 6 C-7 4.68 -7 3.36 -7 2 C-4.69 2.33 -2.38 2.66 0 3 C0 2.01 0 1.02 0 0 Z " fill="#D0D0D0" transform="translate(240,325)"/>
<path d="M0 0 C2.31 0 4.62 0 7 0 C7 0.33 7 0.66 7 1 C5.02 1 3.04 1 1 1 C1.22816406 1.53109375 1.45632813 2.0621875 1.69140625 2.609375 C1.97886719 3.31578125 2.26632812 4.0221875 2.5625 4.75 C2.85253906 5.44609375 3.14257812 6.1421875 3.44140625 6.859375 C4.07831803 9.30012784 3.80248831 10.6403655 3 13 C2.67 12.67 2.34 12.34 2 12 C1.01 13.485 1.01 13.485 0 15 C-0.53154742 13.39935157 -1.04988353 11.79431126 -1.5625 10.1875 C-1.85253906 9.29417969 -2.14257812 8.40085937 -2.44140625 7.48046875 C-3 5 -3 5 -2 2 C-2 2.66 -2 3.32 -2 4 C-1.34 4 -0.68 4 0 4 C0 2.68 0 1.36 0 0 Z " fill="#D4D4D4" transform="translate(311,293)"/>
<path d="M0 0 C4.62 0.66 9.24 1.32 14 2 C14 2.99 14 3.98 14 5 C9.38 5 4.76 5 0 5 C0 3.35 0 1.7 0 0 Z " fill="#030303" transform="translate(335,333)"/>
<path d="M0 0 C1.98 0 3.96 0 6 0 C6 2.31 6 4.62 6 7 C5.34 7 4.68 7 4 7 C4 7.66 4 8.32 4 9 C2.68 8.67 1.36 8.34 0 8 C0 5.36 0 2.72 0 0 Z " fill="#DDDDDD" transform="translate(280,331)"/>
<path d="M0 0 C0.33 0 0.66 0 1 0 C1 5.28 1 10.56 1 16 C1.99 16.33 2.98 16.66 4 17 C2 19 2 19 -0.8203125 19.1953125 C-1.91085937 19.17210937 -3.00140625 19.14890625 -4.125 19.125 C-5.22070312 19.10695313 -6.31640625 19.08890625 -7.4453125 19.0703125 C-8.28835938 19.04710937 -9.13140625 19.02390625 -10 19 C-8.68 18.67 -7.36 18.34 -6 18 C-6 17.34 -6 16.68 -6 16 C-4.02 16 -2.04 16 0 16 C0 10.72 0 5.44 0 0 Z " fill="#CACACA" transform="translate(266,299)"/>
<path d="M0 0 C0.33 0.66 0.66 1.32 1 2 C3.34907875 2.68931344 3.34907875 2.68931344 6.0625 3.125 C6.98160156 3.29257812 7.90070313 3.46015625 8.84765625 3.6328125 C9.91306641 3.81457031 9.91306641 3.81457031 11 4 C11 5.33333333 11 6.66666667 11 8 C9.54052295 7.93993922 8.08220728 7.8511311 6.625 7.75 C5.81289063 7.70359375 5.00078125 7.6571875 4.1640625 7.609375 C2 7 2 7 0.7109375 5.140625 C0 3 0 3 0 0 Z " fill="#111111" transform="translate(355,323)"/>
<path d="M0 0 C0.66 0 1.32 0 2 0 C2 0.66 2 1.32 2 2 C2.99 2 3.98 2 5 2 C5 4.64 5 7.28 5 10 C3.35 10 1.7 10 0 10 C0 6.7 0 3.4 0 0 Z " fill="#121212" transform="translate(286,305)"/>
<path d="M0 0 C2.64 0 5.28 0 8 0 C8.33 1.98 8.66 3.96 9 6 C8.01 6.495 8.01 6.495 7 7 C6.67 6.34 6.34 5.68 6 5 C5.01 5 4.02 5 3 5 C2.67 5.66 2.34 6.32 2 7 C2 6.34 2 5.68 2 5 C1.34 5 0.68 5 0 5 C0 3.35 0 1.7 0 0 Z " fill="#191919" transform="translate(299,294)"/>
<path d="M0 0 C1.10859375 0.00902344 2.2171875 0.01804688 3.359375 0.02734375 C6.07314592 0.05073833 8.78645545 0.08351825 11.5 0.125 C11.5 0.455 11.5 0.785 11.5 1.125 C10.84926514 1.15005615 10.19853027 1.1751123 9.52807617 1.20092773 C6.58101954 1.31693702 3.6342787 1.43964115 0.6875 1.5625 C-0.84874023 1.62147461 -0.84874023 1.62147461 -2.41601562 1.68164062 C-3.39892578 1.72353516 -4.38183594 1.76542969 -5.39453125 1.80859375 C-6.30050049 1.84525146 -7.20646973 1.88190918 -8.13989258 1.91967773 C-10.65048782 2.0458205 -10.65048782 2.0458205 -13.5 3.125 C-13.83 3.785 -14.16 4.445 -14.5 5.125 C-17.5 4.125 -17.5 4.125 -20.5 2.125 C-13.58616486 -0.00620646 -7.20118424 -0.11198014 0 0 Z " fill="#3E3E3E" transform="translate(140.5,175.875)"/>
<path d="M0 0 C1.51400391 0.01740234 1.51400391 0.01740234 3.05859375 0.03515625 C4.07050781 0.04417969 5.08242188 0.05320312 6.125 0.0625 C7.29869141 0.07990234 7.29869141 0.07990234 8.49609375 0.09765625 C8.82609375 1.08765625 9.15609375 2.07765625 9.49609375 3.09765625 C9.16609375 3.75765625 8.83609375 4.41765625 8.49609375 5.09765625 C7.83609375 5.09765625 7.17609375 5.09765625 6.49609375 5.09765625 C6.49609375 4.43765625 6.49609375 3.77765625 6.49609375 3.09765625 C2.04109375 3.59265625 2.04109375 3.59265625 -2.50390625 4.09765625 C-2.83390625 3.10765625 -3.16390625 2.11765625 -3.50390625 1.09765625 C-2.50390625 0.09765625 -2.50390625 0.09765625 0 0 Z " fill="#090909" transform="translate(301.50390625,318.90234375)"/>
<path d="M0 0 C1.80411967 2.75924185 2.0127245 3.88972103 1.625 7.25 C1.41875 8.1575 1.2125 9.065 1 10 C-1.31 10 -3.62 10 -6 10 C-5.34 9.67 -4.68 9.34 -4 9 C-4 8.01 -4 7.02 -4 6 C-3.34 6 -2.68 6 -2 6 C-2 4.68 -2 3.36 -2 2 C-1.34 2 -0.68 2 0 2 C0 1.34 0 0.68 0 0 Z " fill="#090909" transform="translate(325,304)"/>
<path d="M0 0 C1.98 0 3.96 0 6 0 C6 0.99 6 1.98 6 3 C7.65 3.33 9.3 3.66 11 4 C10.67 4.66 10.34 5.32 10 6 C6.67179946 6.22692276 4.58198664 6.32162419 1.625 4.6875 C0 3 0 3 0 0 Z " fill="#131313" transform="translate(351,332)"/>
<path d="M0 0 C0.33 0.66 0.66 1.32 1 2 C3.02463255 2.65213292 3.02463255 2.65213292 5 3 C4 6 4 6 2 7 C0.12620395 7.07033769 -1.75001102 7.0843022 -3.625 7.0625 C-4.62789063 7.05347656 -5.63078125 7.04445313 -6.6640625 7.03515625 C-7.43492187 7.02355469 -8.20578125 7.01195312 -9 7 C-9.33 6.34 -9.66 5.68 -10 5 C-6.7 5.33 -3.4 5.66 0 6 C0 5.01 0 4.02 0 3 C-1.98 3 -3.96 3 -6 3 C-6 2.67 -6 2.34 -6 2 C-4.02 1.34 -2.04 0.68 0 0 Z " fill="#464646" transform="translate(308,332)"/>
<path d="M0 0 C4.08718695 -0.24042276 7.17679443 0.57741188 11 2 C11.33 1.34 11.66 0.68 12 0 C12 0.99 12 1.98 12 3 C11.34 3 10.68 3 10 3 C10.33 3.99 10.66 4.98 11 6 C7.7 5.34 4.4 4.68 1 4 C0.67 2.68 0.34 1.36 0 0 Z " fill="#B8B8B8" transform="translate(357,322)"/>
<path d="M0 0 C2.0625 0.4375 2.0625 0.4375 4 1 C4.33 3.31 4.66 5.62 5 8 C3.35 8 1.7 8 0 8 C-0.38063221 5.6739143 -0.71269945 3.33944736 -1 1 C-0.67 0.67 -0.34 0.34 0 0 Z " fill="#101010" transform="translate(286,295)"/>
<path d="M0 0 C1.62463842 -0.05395478 3.24978541 -0.09277195 4.875 -0.125 C5.77992188 -0.14820313 6.68484375 -0.17140625 7.6171875 -0.1953125 C10 0 10 0 12 2 C12 2.99 12 3.98 12 5 C9.625 5.125 9.625 5.125 7 5 C6.34 4.34 5.68 3.68 5 3 C3.35008418 2.29289322 1.68437744 1.62056011 0 1 C0 0.67 0 0.34 0 0 Z " fill="#0E0E0E" transform="translate(356,319)"/>
<path d="M0 0 C0.33 0 0.66 0 1 0 C1 3.3 1 6.6 1 10 C0.01 10.33 -0.98 10.66 -2 11 C-2.33 11.99 -2.66 12.98 -3 14 C-3.66 14 -4.32 14 -5 14 C-3.70022952 9.1008651 -2.07626313 4.62440425 0 0 Z " fill="#CBCBCB" transform="translate(333,294)"/>
<path d="M0 0 C2.62129895 2.62129895 2.47771304 4.22359022 2.8125 7.875 C2.92207031 8.92429687 3.03164063 9.97359375 3.14453125 11.0546875 C2.98049065 14.39756886 2.24942633 15.59363695 0 18 C0 15.03 0 12.06 0 9 C-0.66 9 -1.32 9 -2 9 C-1.34 6.03 -0.68 3.06 0 0 Z " fill="#B4B4B4" transform="translate(292,321)"/>
<path d="M0 0 C1.98 0 3.96 0 6 0 C6 1.98 6 3.96 6 6 C4.02 6 2.04 6 0 6 C0 4.02 0 2.04 0 0 Z " fill="#C3C3C3" transform="translate(261,322)"/>
<path d="M0 0 C1 2 1 2 0.3359375 4.39453125 C-1.19349165 7.37736529 -2.69336994 8.70523193 -5.375 10.6875 C-6.14585937 11.26886719 -6.91671875 11.85023438 -7.7109375 12.44921875 C-9.75646756 13.835013 -11.76193189 14.96272186 -14 16 C-9.40525596 10.60117576 -4.72323727 5.28666913 0 0 Z " fill="#C1C1C1" transform="translate(421,216)"/>
<path d="M0 0 C3.63 0 7.26 0 11 0 C11 1.65 11 3.3 11 5 C10.67 4.34 10.34 3.68 10 3 C6.7 3 3.4 3 0 3 C0 2.01 0 1.02 0 0 Z " fill="#E3E3E3" transform="translate(340,323)"/>
<path d="M0 0 C0.33 0.66 0.66 1.32 1 2 C0.27683594 2.87011719 0.27683594 2.87011719 -0.4609375 3.7578125 C-4.00643792 8.14265588 -6.24819164 11.60982044 -8 17 C-10.125 17.875 -10.125 17.875 -12 18 C-10.46906512 13.32800909 -7.89242605 9.97829995 -4.875 6.1875 C-4.40707031 5.59001953 -3.93914062 4.99253906 -3.45703125 4.37695312 C-2.30994435 2.91383208 -1.15568766 1.45633703 0 0 Z " fill="#444444" transform="translate(86,288)"/>
<path d="M0 0 C2.31 0 4.62 0 7 0 C6.67 1.65 6.34 3.3 6 5 C4.02 5 2.04 5 0 5 C0 3.35 0 1.7 0 0 Z " fill="#B7B7B7" transform="translate(417,322)"/>
<path d="M0 0 C1.98 0 3.96 0 6 0 C6.5625 1.9375 6.5625 1.9375 7 4 C6 5 6 5 2.9375 5.0625 C1.4834375 5.0315625 1.4834375 5.0315625 0 5 C0 3.35 0 1.7 0 0 Z " fill="#BEBEBE" transform="translate(280,322)"/>
<path d="M0 0 C4.95 0 9.9 0 15 0 C15 0.66 15 1.32 15 2 C14.34 2 13.68 2 13 2 C13 2.66 13 3.32 13 4 C11.39482903 3.91266424 9.79078338 3.80447776 8.1875 3.6875 C6.84751953 3.60048828 6.84751953 3.60048828 5.48046875 3.51171875 C3 3 3 3 0 0 Z " fill="#C5C5C5" transform="translate(353,315)"/>
<path d="M0 0 C1.65 0 3.3 0 5 0 C5.33 1.65 5.66 3.3 6 5 C3.69 5 1.38 5 -1 5 C-0.67 3.35 -0.34 1.7 0 0 Z " fill="#BCBCBC" transform="translate(280,298)"/>
<path d="M0 0 C1.32 0.33 2.64 0.66 4 1 C4 3.31 4 5.62 4 8 C2.68 8.33 1.36 8.66 0 9 C0 6.03 0 3.06 0 0 Z " fill="#060606" transform="translate(390,325)"/>
<path d="M0 0 C2.64 0 5.28 0 8 0 C8.66 1.65 9.32 3.3 10 5 C8.35 5 6.7 5 5 5 C5 4.01 5 3.02 5 2 C3.35 2 1.7 2 0 2 C0 1.34 0 0.68 0 0 Z " fill="#090909" transform="translate(377,319)"/>
<path d="M0 0 C0 0.99 0 1.98 0 3 C-1.98 3 -3.96 3 -6 3 C-6 2.34 -6 1.68 -6 1 C-7.98 1 -9.96 1 -12 1 C-12 0.67 -12 0.34 -12 0 C-7.74433453 -1.16063604 -4.3164922 -0.76173392 0 0 Z " fill="#CACACA" transform="translate(363,331)"/>
<path d="M0 0 C-0.928125 0.61875 -0.928125 0.61875 -1.875 1.25 C-4.06768281 3.05573879 -4.92788417 4.4090534 -6 7 C-7.65 5.35 -9.3 3.7 -11 2 C-7.17679443 0.57741188 -4.08718695 -0.24042276 0 0 Z " fill="#E6E6E6" transform="translate(279,315)"/>
<path d="M0 0 C2.97 0 5.94 0 9 0 C9 0.99 9 1.98 9 3 C6.03 3 3.06 3 0 3 C0 2.01 0 1.02 0 0 Z " fill="#040404" transform="translate(340,303)"/>
<path d="M0 0 C4.455 0.99 4.455 0.99 9 2 C9 2.33 9 2.66 9 3 C6.69 3.33 4.38 3.66 2 4 C4.64 4.33 7.28 4.66 10 5 C10 5.33 10 5.66 10 6 C6.96663814 6.22893297 4.02534949 6.36475845 1 6 C-1.0625 4 -1.0625 4 -2 2 C-1.34 2 -0.68 2 0 2 C0 1.34 0 0.68 0 0 Z " fill="#616161" transform="translate(228,334)"/>
<path d="M0 0 C1.49559408 2.99118816 0.62567071 5.57065773 0.15625 8.80859375 C-0.15327436 11.17834025 -0.15327436 11.17834025 1 14 C-0.32 13.34 -1.64 12.68 -3 12 C-3.34833144 7.12335991 -2.41685712 4.22949995 0 0 Z " fill="#5D5D5D" transform="translate(63,325)"/>
<path d="M0 0 C0.98120464 3.05263664 0.98120464 4.94736336 0 8 C-1.98 8 -3.96 8 -6 8 C-6 6.66666667 -6 5.33333333 -6 4 C-4.35 3.67 -2.7 3.34 -1 3 C-0.67 2.01 -0.34 1.02 0 0 Z " fill="#1C1C1C" transform="translate(424,323)"/>
<path d="M0 0 C2.35953094 2.35953094 2.49141413 3.77895617 3 7 C1.02 7 -0.96 7 -3 7 C-3.33 5.68 -3.66 4.36 -4 3 C-3.01 3 -2.02 3 -1 3 C-0.67 2.01 -0.34 1.02 0 0 Z " fill="#2C2C2C" transform="translate(311,308)"/>
<path d="M0 0 C0 0.99 0 1.98 0 3 C-3.21451269 4.60725635 -6.43612536 4.05748185 -10 4 C-9 2 -9 2 -6.125 0.875 C-3 0 -3 0 0 0 Z " fill="#050505" transform="translate(386,334)"/>
<path d="M0 0 C0.99 0.33 1.98 0.66 3 1 C3 2.98 3 4.96 3 7 C1.68 7 0.36 7 -1 7 C-1.125 2.25 -1.125 2.25 0 0 Z " fill="#060606" transform="translate(426,331)"/>
<path d="M0 0 C0 0.99 0 1.98 0 3 C-2.95664519 4.4783226 -5.74229737 4.06032783 -9 4 C-6.25137935 -0.12293098 -4.89482776 0 0 0 Z " fill="#3A3A3A" transform="translate(240,330)"/>
<path d="M0 0 C2.31 0 4.62 0 7 0 C7 0.33 7 0.66 7 1 C5.02 1 3.04 1 1 1 C1 2.98 1 4.96 1 7 C0.01 7.33 -0.98 7.66 -2 8 C-2.33 6.02 -2.66 4.04 -3 2 C-2.67 2.66 -2.34 3.32 -2 4 C-1.34 4 -0.68 4 0 4 C0 2.68 0 1.36 0 0 Z " fill="#E5E5E5" transform="translate(311,293)"/>
<path d="M0 0 C0.33 0.66 0.66 1.32 1 2 C-1.45454545 7.72727273 -1.45454545 7.72727273 -4 9 C-4.33 9.99 -4.66 10.98 -5 12 C-5.66 12 -6.32 12 -7 12 C-5.44298069 7.32894208 -2.91552627 3.91294315 0 0 Z " fill="#B8B8B8" transform="translate(231,288)"/>
<path d="M0 0 C0.66 0 1.32 0 2 0 C5 5.75 5 5.75 5 8 C5.66 8.33 6.32 8.66 7 9 C6.01 9 5.02 9 4 9 C4 8.34 4 7.68 4 7 C2.35 7.33 0.7 7.66 -1 8 C-0.835 6.865625 -0.67 5.73125 -0.5 4.5625 C-0.14367797 2.28867481 -0.14367797 2.28867481 0 0 Z " fill="#B0B0B0" transform="translate(387,329)"/>
<path d="M0 0 C1.65 0 3.3 0 5 0 C5.33 1.32 5.66 2.64 6 4 C4.02 4 2.04 4 0 4 C0 2.68 0 1.36 0 0 Z " fill="#D0D0D0" transform="translate(376,330)"/>
<path d="M0 0 C0.66 0 1.32 0 2 0 C2 2.31 2 4.62 2 7 C0.68 7 -0.64 7 -2 7 C-2.125 4.625 -2.125 4.625 -2 2 C-1.34 1.34 -0.68 0.68 0 0 Z " fill="#060606" transform="translate(289,331)"/>
<path d="M0 0 C0.66 0.33 1.32 0.66 2 1 C2 2.32 2 3.64 2 5 C0.68 5 -0.64 5 -2 5 C-2 7.31 -2 9.62 -2 12 C-2.33 12 -2.66 12 -3 12 C-3.36923077 4.61538462 -3.36923077 4.61538462 -1.5 1.5 C-1.005 1.005 -0.51 0.51 0 0 Z " fill="#575757" transform="translate(226,320)"/>
<path d="M0 0 C2.31 0 4.62 0 7 0 C7 0.99 7 1.98 7 3 C4.36 3 1.72 3 -1 3 C-0.67 2.01 -0.34 1.02 0 0 Z " fill="#040404" transform="translate(325,319)"/>
<path d="M0 0 C0.99 0.33 1.98 0.66 3 1 C4.1875 4.0625 4.1875 4.0625 5 7 C3.35 6.67 1.7 6.34 0 6 C0 4.02 0 2.04 0 0 Z " fill="#1A1A1A" transform="translate(229,326)"/>
<path d="M0 0 C1.65 0 3.3 0 5 0 C4.01 0.495 4.01 0.495 3 1 C3 1.99 3 2.98 3 4 C0.625 4.625 0.625 4.625 -2 5 C-2.66 4.34 -3.32 3.68 -4 3 C-3.01 3 -2.02 3 -1 3 C-0.67 2.01 -0.34 1.02 0 0 Z " fill="#FAFAFA" transform="translate(300,313)"/>
<path d="M0 0 C0 2.33333333 0 4.66666667 0 7 C-0.99 7.495 -0.99 7.495 -2 8 C-2.66 8.99 -3.32 9.98 -4 11 C-4.65234375 9.234375 -4.65234375 9.234375 -5 7 C-4.00390625 5.078125 -4.00390625 5.078125 -2.5625 3.25 C-2.08941406 2.63640625 -1.61632812 2.0228125 -1.12890625 1.390625 C-0.75636719 0.93171875 -0.38382812 0.4728125 0 0 Z " fill="#C3C3C3" transform="translate(271,202)"/>
<path d="M0 0 C2.31 0 4.62 0 7 0 C7 0.99 7 1.98 7 3 C4.69 3 2.38 3 0 3 C0 2.01 0 1.02 0 0 Z " fill="#050505" transform="translate(301,335)"/>
<path d="M0 0 C0.99 0 1.98 0 3 0 C4.10844919 3.32534757 3.84454356 5.62182575 3 9 C2.34 9 1.68 9 1 9 C0.67 6.03 0.34 3.06 0 0 Z " fill="#C7C7C7" transform="translate(290,306)"/>
<path d="M0 0 C0.66 0 1.32 0 2 0 C0.84826645 2.46800047 -0.04783565 4.04783565 -2 6 C-4.625 6.625 -4.625 6.625 -7 7 C-4.66666667 4.66666667 -2.33333333 2.33333333 0 0 Z " fill="#2B2B2B" transform="translate(269,234)"/>
<path d="M0 0 C0.99 0.33 1.98 0.66 3 1 C0.41409657 4.50944037 -0.9915966 5.9957983 -5 8 C-3.35 5.36 -1.7 2.72 0 0 Z " fill="#313131" transform="translate(280,221)"/>
<path d="M0 0 C1.2065625 0.0309375 1.2065625 0.0309375 2.4375 0.0625 C2.7675 0.7225 3.0975 1.3825 3.4375 2.0625 C1.1275 2.3925 -1.1825 2.7225 -3.5625 3.0625 C-3.8925 4.0525 -4.2225 5.0425 -4.5625 6.0625 C-3.48963568 0.08511307 -3.48963568 0.08511307 0 0 Z " fill="#C9C9C9" transform="translate(399.5625,321.9375)"/>
<path d="M0 0 C0.66 0 1.32 0 2 0 C2.66 1.65 3.32 3.3 4 5 C3.01 5.33 2.02 5.66 1 6 C0.67 7.98 0.34 9.96 0 12 C-0.33 12 -0.66 12 -1 12 C-1.08159574 7.83861737 -0.98248524 4.0527516 0 0 Z " fill="#3B3B3B" transform="translate(310,319)"/>
<path d="M0 0 C0.66 0 1.32 0 2 0 C2.33 1.98 2.66 3.96 3 6 C1.68 6 0.36 6 -1 6 C-0.67 4.02 -0.34 2.04 0 0 Z " fill="#CECECE" transform="translate(302,301)"/>
<path d="M0 0 C0.66 0.99 1.32 1.98 2 3 C0.02 5.97 0.02 5.97 -2 9 C-2.66 8.01 -3.32 7.02 -4 6 C-2.68 4.02 -1.36 2.04 0 0 Z " fill="#EEEEEE" transform="translate(76,297)"/>
<path d="M0 0 C0.66 1.32 1.32 2.64 2 4 C0.68 5.32 -0.64 6.64 -2 8 C-3 5 -3 5 -2 2 C-1.34 2 -0.68 2 0 2 C0 1.34 0 0.68 0 0 Z " fill="#161616" transform="translate(420,212)"/>
<path d="M0 0 C-1.32 1.32 -2.64 2.64 -4 4 C-7 3 -7 3 -10 1 C-6.78548731 -0.60725635 -3.56387464 -0.05748185 0 0 Z " fill="#4A4A4A" transform="translate(130,177)"/>
<path d="M0 0 C-0.33 0.99 -0.66 1.98 -1 3 C-2.65 3 -4.3 3 -6 3 C-6 2.01 -6 1.02 -6 0 C-3 -1 -3 -1 0 0 Z " fill="#070707" transform="translate(406,335)"/>
<path d="M0 0 C1.1875 1.6875 1.1875 1.6875 2 4 C0.625 6.75 0.625 6.75 -1 9 C-1.66 8.34 -2.32 7.68 -3 7 C-2.01 4.69 -1.02 2.38 0 0 Z " fill="#1A1A1A" transform="translate(222,296)"/>
<path d="M0 0 C0.33 1.32 0.66 2.64 1 4 C-0.65 5.32 -2.3 6.64 -4 8 C-4 4.09161134 -2.49432124 2.88405893 0 0 Z " fill="#3E3E3E" transform="translate(74,211)"/>
<path d="M0 0 C0.33 1.32 0.66 2.64 1 4 C-0.32 4.99 -1.64 5.98 -3 7 C-3.1875 4.625 -3.1875 4.625 -3 2 C-2.01 1.34 -1.02 0.68 0 0 Z " fill="#030303" transform="translate(297,324)"/>
</svg>
